<svg width="207" height="30" viewBox="0 0 207 30" fill="none" xmlns="http://www.w3.org/2000/svg">
<g id="Hg_Button/Primary Normal">
<rect width="207" height="30" rx="3" fill="#2C2925"/>
<path id="Deploy to Oracle Cloud" d="M47.4397 20V9.822H50.4917C52.1343 9.822 53.371 10.2513 54.2017 11.11C55.0417 11.9687 55.4617 13.238 55.4617 14.918C55.4617 16.598 55.0417 17.8673 54.2017 18.726C53.371 19.5753 52.1343 20 50.4917 20H47.4397ZM50.4637 10.928H48.7417V18.894H50.4637C51.6957 18.894 52.615 18.5673 53.2217 17.914C53.8283 17.2607 54.1317 16.262 54.1317 14.918C54.1317 12.258 52.909 10.928 50.4637 10.928ZM62.6881 19.636C62.4267 19.7947 62.0767 19.9207 61.6381 20.014C61.2087 20.1073 60.7374 20.154 60.2241 20.154C59.0667 20.154 58.1894 19.8273 57.5921 19.174C57.0041 18.5113 56.7101 17.5453 56.7101 16.276C56.7101 15.0533 56.9901 14.1247 57.5501 13.49C58.1194 12.8553 58.9314 12.538 59.9861 12.538C62.0207 12.538 63.0381 13.6627 63.0381 15.912V16.724H57.9841C58.0401 17.5453 58.2594 18.1473 58.6421 18.53C59.0247 18.9033 59.5941 19.09 60.3501 19.09C60.7701 19.09 61.1667 19.048 61.5401 18.964C61.9134 18.88 62.2961 18.7493 62.6881 18.572V19.636ZM59.9861 13.574C59.3701 13.574 58.8894 13.7607 58.5441 14.134C58.2081 14.498 58.0214 15.03 57.9841 15.73H61.8201C61.8201 14.9647 61.6754 14.414 61.3861 14.078C61.1061 13.742 60.6394 13.574 59.9861 13.574ZM64.6369 22.814V12.692H65.4909L65.7009 13.868C65.9809 13.448 66.3356 13.1213 66.7649 12.888C67.2036 12.6547 67.6749 12.538 68.1789 12.538C69.1496 12.538 69.9056 12.874 70.4469 13.546C70.9882 14.2087 71.2589 15.1373 71.2589 16.332C71.2589 17.536 70.9836 18.474 70.4329 19.146C69.8916 19.818 69.1309 20.154 68.1509 20.154C67.7402 20.154 67.3389 20.0747 66.9469 19.916C66.5549 19.7573 66.2049 19.5333 65.8969 19.244V22.814H64.6369ZM67.9829 13.56C67.5442 13.56 67.1382 13.6813 66.7649 13.924C66.4009 14.1573 66.1116 14.4793 65.8969 14.89V18.138C66.4662 18.8007 67.1429 19.132 67.9269 19.132C68.5896 19.132 69.0936 18.894 69.4389 18.418C69.7936 17.942 69.9709 17.2513 69.9709 16.346C69.9709 15.4593 69.7982 14.7733 69.4529 14.288C69.1076 13.8027 68.6176 13.56 67.9829 13.56ZM72.758 20V10.466L72.03 10.004V9.486H74.018V20H72.758ZM79.1313 20.154C78.03 20.154 77.176 19.818 76.5693 19.146C75.9626 18.4647 75.6593 17.5313 75.6593 16.346C75.6593 15.1513 75.9626 14.218 76.5693 13.546C77.176 12.874 78.03 12.538 79.1313 12.538C80.242 12.538 81.1006 12.874 81.7073 13.546C82.314 14.218 82.6173 15.1513 82.6173 16.346C82.6173 17.5313 82.314 18.4647 81.7073 19.146C81.1006 19.818 80.242 20.154 79.1313 20.154ZM79.1313 19.118C79.85 19.118 80.396 18.8847 80.7693 18.418C81.1426 17.942 81.3293 17.2513 81.3293 16.346C81.3293 15.4407 81.1426 14.7547 80.7693 14.288C80.396 13.812 79.85 13.574 79.1313 13.574C78.422 13.574 77.8806 13.812 77.5073 14.288C77.134 14.7547 76.9473 15.4407 76.9473 16.346C76.9473 17.2513 77.134 17.942 77.5073 18.418C77.8806 18.8847 78.422 19.118 79.1313 19.118ZM85.9113 19.93L83.2653 12.692H84.5813L86.8773 19.23L88.8793 12.692H90.1533L87.8153 19.846C87.5913 20.5367 87.344 21.0967 87.0733 21.526C86.812 21.9553 86.4947 22.2867 86.1213 22.52C85.748 22.7533 85.2813 22.9353 84.7213 23.066L84.4133 22.016C84.7867 21.9133 85.104 21.7827 85.3653 21.624C85.6267 21.4747 85.8507 21.274 86.0373 21.022C86.2333 20.77 86.406 20.4387 86.5553 20.028L86.5973 19.93H85.9113ZM95.0624 17.774V13.728H93.8024V13.084L95.0624 12.664L95.5664 10.676H96.3224V12.692H97.9044V13.728H96.3224V17.76C96.3224 18.5627 96.6677 18.964 97.3584 18.964C97.4704 18.964 97.5777 18.9593 97.6804 18.95C97.7924 18.9313 97.8951 18.9173 97.9884 18.908V20C97.8577 20.028 97.7224 20.0467 97.5824 20.056C97.4517 20.0653 97.3117 20.07 97.1624 20.07C96.4437 20.07 95.9117 19.8833 95.5664 19.51C95.2304 19.1367 95.0624 18.558 95.0624 17.774ZM102.428 20.154C101.327 20.154 100.473 19.818 99.8662 19.146C99.2595 18.4647 98.9562 17.5313 98.9562 16.346C98.9562 15.1513 99.2595 14.218 99.8662 13.546C100.473 12.874 101.327 12.538 102.428 12.538C103.539 12.538 104.397 12.874 105.004 13.546C105.611 14.218 105.914 15.1513 105.914 16.346C105.914 17.5313 105.611 18.4647 105.004 19.146C104.397 19.818 103.539 20.154 102.428 20.154ZM102.428 19.118C103.147 19.118 103.693 18.8847 104.066 18.418C104.439 17.942 104.626 17.2513 104.626 16.346C104.626 15.4407 104.439 14.7547 104.066 14.288C103.693 13.812 103.147 13.574 102.428 13.574C101.719 13.574 101.177 13.812 100.804 14.288C100.431 14.7547 100.244 15.4407 100.244 16.346C100.244 17.2513 100.431 17.942 100.804 18.418C101.177 18.8847 101.719 19.118 102.428 19.118ZM115.185 20.168C113.729 20.168 112.609 19.7153 111.825 18.81C111.05 17.9047 110.663 16.6073 110.663 14.918C110.663 13.2287 111.055 11.9313 111.839 11.026C112.623 10.1113 113.738 9.654 115.185 9.654C116.631 9.654 117.742 10.1113 118.517 11.026C119.301 11.9313 119.693 13.2287 119.693 14.918C119.693 16.6073 119.301 17.9047 118.517 18.81C117.742 19.7153 116.631 20.168 115.185 20.168ZM115.185 19.034C116.23 19.034 117.019 18.6887 117.551 17.998C118.092 17.298 118.363 16.2713 118.363 14.918C118.363 13.5553 118.092 12.5287 117.551 11.838C117.019 11.138 116.23 10.788 115.185 10.788C113.057 10.788 111.993 12.1647 111.993 14.918C111.993 16.2713 112.259 17.298 112.791 17.998C113.332 18.6887 114.13 19.034 115.185 19.034ZM121.471 20V12.692H122.325L122.577 14.064C123.053 13.14 123.734 12.678 124.621 12.678C124.808 12.678 124.971 12.692 125.111 12.72V13.826H124.789C124.257 13.826 123.814 13.9753 123.459 14.274C123.104 14.5727 122.862 15.0067 122.731 15.576V20H121.471ZM130.943 20L130.733 18.824C130.136 19.7107 129.324 20.154 128.297 20.154C127.56 20.154 126.967 19.9487 126.519 19.538C126.08 19.118 125.861 18.5627 125.861 17.872C125.861 17.1067 126.122 16.514 126.645 16.094C127.177 15.6647 127.914 15.45 128.857 15.45H130.537V14.988C130.537 14.4653 130.42 14.0967 130.187 13.882C129.963 13.6673 129.576 13.56 129.025 13.56C128.67 13.56 128.292 13.602 127.891 13.686C127.49 13.7607 127.037 13.8867 126.533 14.064V13.042C126.888 12.8833 127.294 12.762 127.751 12.678C128.208 12.5847 128.638 12.538 129.039 12.538C130.878 12.538 131.797 13.3547 131.797 14.988V20H130.943ZM128.451 19.146C128.88 19.146 129.282 19.0247 129.655 18.782C130.028 18.53 130.327 18.1893 130.551 17.76V16.374H128.983C128.348 16.374 127.877 16.4907 127.569 16.724C127.27 16.948 127.121 17.298 127.121 17.774C127.121 18.194 127.238 18.53 127.471 18.782C127.714 19.0247 128.04 19.146 128.451 19.146ZM138.982 18.6V19.636C138.404 19.9813 137.671 20.154 136.784 20.154C135.655 20.154 134.801 19.8273 134.222 19.174C133.653 18.5113 133.368 17.5407 133.368 16.262C133.368 15.0767 133.672 14.162 134.278 13.518C134.885 12.8647 135.744 12.538 136.854 12.538C137.545 12.538 138.184 12.692 138.772 13V14.036C138.156 13.728 137.582 13.574 137.05 13.574C135.454 13.574 134.656 14.47 134.656 16.262C134.656 17.2327 134.838 17.9513 135.202 18.418C135.576 18.8847 136.159 19.118 136.952 19.118C137.27 19.118 137.592 19.076 137.918 18.992C138.245 18.908 138.6 18.7773 138.982 18.6ZM140.516 20V10.466L139.788 10.004V9.486H141.776V20H140.516ZM149.395 19.636C149.134 19.7947 148.784 19.9207 148.345 20.014C147.916 20.1073 147.444 20.154 146.931 20.154C145.774 20.154 144.896 19.8273 144.299 19.174C143.711 18.5113 143.417 17.5453 143.417 16.276C143.417 15.0533 143.697 14.1247 144.257 13.49C144.826 12.8553 145.638 12.538 146.693 12.538C148.728 12.538 149.745 13.6627 149.745 15.912V16.724H144.691C144.747 17.5453 144.966 18.1473 145.349 18.53C145.732 18.9033 146.301 19.09 147.057 19.09C147.477 19.09 147.874 19.048 148.247 18.964C148.62 18.88 149.003 18.7493 149.395 18.572V19.636ZM146.693 13.574C146.077 13.574 145.596 13.7607 145.251 14.134C144.915 14.498 144.728 15.03 144.691 15.73H148.527C148.527 14.9647 148.382 14.414 148.093 14.078C147.813 13.742 147.346 13.574 146.693 13.574ZM162.07 18.39V19.51C161.696 19.7153 161.253 19.8787 160.74 20C160.236 20.112 159.722 20.168 159.2 20.168C157.688 20.168 156.516 19.706 155.686 18.782C154.864 17.8487 154.454 16.5233 154.454 14.806C154.454 13.7327 154.645 12.8133 155.028 12.048C155.42 11.2827 155.975 10.6947 156.694 10.284C157.412 9.864 158.266 9.654 159.256 9.654C159.694 9.654 160.138 9.71 160.586 9.822C161.043 9.934 161.416 10.088 161.706 10.284V11.404C161.22 11.1893 160.796 11.0353 160.432 10.942C160.068 10.8487 159.704 10.802 159.34 10.802C158.22 10.802 157.347 11.152 156.722 11.852C156.096 12.5427 155.784 13.5273 155.784 14.806C155.784 16.1593 156.092 17.2 156.708 17.928C157.333 18.656 158.21 19.02 159.34 19.02C160.18 19.02 161.09 18.81 162.07 18.39ZM163.731 20V10.466L163.003 10.004V9.486H164.991V20H163.731ZM170.104 20.154C169.003 20.154 168.149 19.818 167.542 19.146C166.935 18.4647 166.632 17.5313 166.632 16.346C166.632 15.1513 166.935 14.218 167.542 13.546C168.149 12.874 169.003 12.538 170.104 12.538C171.215 12.538 172.073 12.874 172.68 13.546C173.287 14.218 173.59 15.1513 173.59 16.346C173.59 17.5313 173.287 18.4647 172.68 19.146C172.073 19.818 171.215 20.154 170.104 20.154ZM170.104 19.118C170.823 19.118 171.369 18.8847 171.742 18.418C172.115 17.942 172.302 17.2513 172.302 16.346C172.302 15.4407 172.115 14.7547 171.742 14.288C171.369 13.812 170.823 13.574 170.104 13.574C169.395 13.574 168.853 13.812 168.48 14.288C168.107 14.7547 167.92 15.4407 167.92 16.346C167.92 17.2513 168.107 17.942 168.48 18.418C168.853 18.8847 169.395 19.118 170.104 19.118ZM175.159 17.214V12.692H176.419V17.172C176.419 17.7973 176.554 18.278 176.825 18.614C177.095 18.95 177.492 19.118 178.015 19.118C178.453 19.118 178.864 18.9687 179.247 18.67C179.639 18.362 179.933 17.956 180.129 17.452V12.692H181.389V20H180.535L180.311 18.754C180.012 19.202 179.634 19.5473 179.177 19.79C178.729 20.0327 178.239 20.154 177.707 20.154C176.895 20.154 176.265 19.902 175.817 19.398C175.378 18.894 175.159 18.166 175.159 17.214ZM188.793 20L188.583 18.824C188.303 19.244 187.943 19.5707 187.505 19.804C187.075 20.0373 186.609 20.154 186.105 20.154C185.143 20.154 184.387 19.818 183.837 19.146C183.295 18.474 183.025 17.5453 183.025 16.36C183.025 15.156 183.295 14.218 183.837 13.546C184.387 12.874 185.153 12.538 186.133 12.538C186.543 12.538 186.945 12.6173 187.337 12.776C187.729 12.9347 188.079 13.1587 188.387 13.448V9.486H189.647V20H188.793ZM184.313 16.346C184.313 17.2327 184.485 17.9187 184.831 18.404C185.176 18.8893 185.666 19.132 186.301 19.132C186.739 19.132 187.141 19.0153 187.505 18.782C187.878 18.5393 188.172 18.2127 188.387 17.802V14.554C187.817 13.8913 187.141 13.56 186.357 13.56C185.703 13.56 185.199 13.798 184.845 14.274C184.49 14.75 184.313 15.4407 184.313 16.346Z" fill="white"/>
<g id=" 24px / Oracle / oracle-o">
<path id="Mask" fill-rule="evenodd" clip-rule="evenodd" d="M19.1367 22.152C15.2075 22.152 12.0222 18.9544 12.0222 15.0017C12.0222 11.0491 15.2075 7.84442 19.1367 7.84442H27.4071C31.3398 7.84442 34.5111 11.0491 34.5111 15.0017C34.5111 18.9544 31.3398 22.1555 27.4071 22.1555L19.1367 22.152ZM27.2185 19.634C29.7682 19.634 31.827 17.5584 31.827 15.0017C31.827 12.4415 29.7682 10.373 27.2185 10.373H19.32C16.7774 10.373 14.7168 12.4415 14.7168 15.0017C14.7168 17.5584 16.7774 19.634 19.32 19.634H27.2185Z" fill="#C74634"/>
</g>
</g>
</svg>
