<?xml version="1.0" encoding="UTF-8" standalone="no"?>
<svg
   width="512"
   height="512"
   version="1.1"
   id="svg8154"
   sodipodi:docname="landing zone.svg"
   inkscape:version="1.1.1 (c3084ef, 2021-09-22)"
   xmlns:inkscape="http://www.inkscape.org/namespaces/inkscape"
   xmlns:sodipodi="http://sodipodi.sourceforge.net/DTD/sodipodi-0.dtd"
   xmlns="http://www.w3.org/2000/svg"
   xmlns:svg="http://www.w3.org/2000/svg">
  <defs
     id="defs8158" />
  <sodipodi:namedview
     id="namedview8156"
     pagecolor="#ffffff"
     bordercolor="#666666"
     borderopacity="1.0"
     inkscape:pageshadow="2"
     inkscape:pageopacity="0.0"
     inkscape:pagecheckerboard="0"
     showgrid="false"
     inkscape:zoom="0.81542849"
     inkscape:cx="334.79331"
     inkscape:cy="406.53473"
     inkscape:window-width="1555"
     inkscape:window-height="953"
     inkscape:window-x="1786"
     inkscape:window-y="25"
     inkscape:window-maximized="0"
     inkscape:current-layer="layer7" />
  <g
     inkscape:groupmode="layer"
     id="layer8"
     inkscape:label="Helipad"
     style="display:inline">
    <g
       inkscape:groupmode="layer"
       id="layer2"
       inkscape:label="Red circle"
       style="display:inline">
      <path
         style="fill:#c74634;fill-opacity:1;stroke:none;stroke-width:0.696298"
         d="m 180.93435,43.48395 c -11.36658,1.51951 -22.5993,2.034233 -33.81269,4.956129 -28.45717,7.415013 -56.443035,23.38121 -76.534326,45.332773 -19.087813,20.855228 -33.450061,46.075698 -40.444871,73.772828 -15.883453,62.89309 6.90386,132.45666 57.634482,172.216 17.518425,13.72947 37.356125,23.62557 58.654665,29.6089 20.00814,5.62079 41.64066,6.42878 62.10493,3.83619 54.56884,-6.91287 103.73249,-42.8852 126.75686,-93.94795 10.20798,-22.63842 15.37442,-47.48089 15.37442,-72.36763 0,-75.89117 -56.10836,-145.037383 -129.02024,-159.911602 -12.87573,-2.626664 -27.58356,-5.250939 -40.71323,-3.495638 z"
         id="path4572" />
    </g>
    <g
       inkscape:groupmode="layer"
       id="layer3"
       inkscape:label="Black pad">
      <path
         style="display:inline;fill:#000000;stroke:none;stroke-width:0.696298"
         d="m 180.93435,69.181908 c -67.81238,0 -130.420365,63.774152 -130.420365,132.791092 -2.513525,0.007 -5.250696,-0.12857 -7.579976,1.00753 -4.456098,2.17243 -5.290305,8.0855 -1.298614,11.24298 2.481644,1.96306 5.911078,1.79303 8.87859,1.80146 0,69.03732 62.642485,132.79109 130.420365,132.79109 0.001,2.54411 -0.24773,5.37277 0.90949,7.71805 2.40001,4.86338 8.68434,5.30251 11.60948,0.67449 1.55608,-2.4619 1.28005,-5.5976 1.28212,-8.39254 67.78685,0 130.42036,-63.74113 130.42036,-132.79109 2.74504,-0.002 5.82476,0.27893 8.24271,-1.30543 4.54539,-2.97831 4.1141,-9.37688 -0.66245,-11.82051 -2.30341,-1.17826 -5.08157,-0.92462 -7.58026,-0.92603 0,-69.04715 -62.60108,-132.791092 -130.42036,-132.791092 -0.008,-3.021454 0.15872,-6.513298 -1.7693,-9.039982 -3.1011,-4.064251 -8.9086,-3.21488 -11.04225,1.32222 -1.11582,2.371691 -0.98264,5.158477 -0.98954,7.717762 z"
         id="path4688" />
    </g>
    <g
       inkscape:groupmode="layer"
       id="layer4"
       inkscape:label="Grey circle">
      <path
         style="display:inline;fill:#e6e6e6;stroke:none;stroke-width:0.696298"
         d="m 64.315081,201.973 c 7.123298,0.17565 13.075021,8.85766 4.820792,13.2236 -1.515015,0.80167 -3.163487,0.78762 -4.820792,0.82837 0.0066,61.30452 56.396799,118.73913 116.619269,118.73913 0.17251,-7.25293 8.69952,-13.31284 12.98752,-4.90836 0.78735,1.54221 0.77355,3.22071 0.81357,4.90836 60.23558,-0.007 116.61237,-57.40018 116.61927,-118.73913 -7.12344,-0.17565 -13.07516,-8.85766 -4.82073,-13.22361 1.51467,-0.80166 3.16322,-0.78761 4.82073,-0.82836 0,-61.32981 -56.38024,-118.73245 -116.61927,-118.739124 -0.17251,7.252782 -8.69952,13.312693 -12.98752,4.908422 -0.78735,-1.542554 -0.77355,-3.220992 -0.81357,-4.908422 C 120.68842,83.240576 64.321706,140.64108 64.315081,201.973 Z"
         id="path4962" />
    </g>
    <g
       inkscape:groupmode="layer"
       id="layer5"
       inkscape:label="Dots">
      <path
         style="display:inline;fill:#000000;stroke:none;stroke-width:0.696298"
         d="m 186.45548,106.85032 c -8.34415,2.01926 -5.46524,15.18104 2.75884,13.19058 8.34414,-2.01927 5.46454,-15.18105 -2.75884,-13.19058 z"
         id="path5330" />
      <path
         style="display:inline;fill:#000000;stroke:none;stroke-width:0.696298"
         d="m 92.608019,202.40369 c -8.344143,2.01927 -5.464545,15.18105 2.758839,13.19059 8.344142,-2.01927 5.464542,-15.18105 -2.758839,-13.19059 z"
         id="path6256" />
      <path
         style="display:inline;fill:#000000;stroke:none;stroke-width:0.696298"
         d="m 280.30293,202.40369 c -8.34414,2.01927 -5.46454,15.18105 2.75884,13.19059 8.34414,-2.01927 5.46454,-15.18105 -2.75884,-13.19059 z"
         id="path6264" />
      <path
         style="display:inline;fill:#000000;stroke:none;stroke-width:0.696298"
         d="m 186.45548,297.95707 c -8.34415,2.01927 -5.46455,15.18105 2.75884,13.19059 8.34414,-2.01927 5.46454,-15.18105 -2.75884,-13.19059 z"
         id="path7220" />
    </g>
    <g
       inkscape:groupmode="layer"
       id="layer6"
       inkscape:label="O">
      <path
         style="fill:#c74634;stroke-width:4.32745"
         inkscape:connector-curvature="0"
         d="m 166.60025,256.21648 c -21.18695,0 -38.1365,-21.38996 -38.1365,-48.12752 0,-26.73762 16.94955,-48.12772 38.1365,-48.12772 h 44.68519 c 21.18695,0 38.1365,21.3901 38.1365,48.12772 0,26.73756 -16.94955,48.12752 -38.1365,48.12752 h -44.68519 m 43.52954,-17.01477 c 13.86781,0 24.6539,-14.09799 24.6539,-31.11275 0,-17.50095 -11.1713,-31.11276 -24.6539,-31.11276 H 167.7559 c -13.86782,0 -24.6539,14.09795 -24.6539,31.11276 0,17.01476 11.1713,31.11275 24.6539,31.11275 h 42.37389"
         id="path112" />
    </g>
  </g>
  <g
     inkscape:groupmode="layer"
     id="layer7"
     inkscape:label="chopper"
     style="display:inline">
    <path
       style="fill:#343434;stroke:none;stroke-width:0.328567"
       d="m 379.33088,268.85214 c 1.34351,1.45212 3.68729,1.19445 5.55881,1.42344 4.14592,0.50747 8.31785,1.25705 12.35818,2.32619 11.82123,3.12837 22.95324,8.43835 32.89815,15.52812 10.77615,7.68235 19.73577,18.40351 26.33167,29.8066 2.26706,3.9191 4.20854,8.00204 5.89519,12.20199 0.75603,1.88295 1.21531,4.68438 2.92643,5.86121 l 0.4045,-0.51789 c -3.04169,-7.20071 -5.69404,-14.32665 -9.85195,-21.01424 -11.33213,-18.2251 -28.55469,-32.10284 -48.49238,-39.86599 -6.12554,-2.38513 -12.49648,-4.0093 -18.97729,-5.06099 -2.85991,-0.46401 -6.19045,-1.31935 -9.05131,-0.68844 m -12.96272,67.83813 c -9.53834,-7.44907 -20.1426,-14.22525 -31.08372,-19.45242 -5.04163,-2.40906 -10.42577,-4.89094 -16.0099,-5.65748 5.8798,-6.40692 14.01721,-11.4261 21.85478,-15.03224 3.27588,-1.50707 7.13952,-2.26568 10.20049,-4.12321 -2.67274,-0.31611 -5.96737,1.60195 -8.40641,2.60611 -6.16481,2.53795 -11.76248,6.0221 -17.09893,9.99169 -2.24913,1.67322 -4.38161,4.6783 -6.92883,5.80599 -1.3882,0.61423 -3.1186,0.18321 -4.58464,0.16796 -2.72656,-0.0284 -6.08321,0.80439 -7.80281,3.11967 -1.67073,2.25006 -1.87061,5.2821 -1.23956,7.92501 0.50238,2.10466 1.65585,4.04455 0.56158,6.13784 -3.9884,7.63158 -7.31497,15.50742 -8.677,24.07389 -0.39543,2.48654 -1.51215,5.80637 -0.65811,8.24116 1.20351,-3.72983 1.07937,-7.92006 2.03407,-11.7525 1.92783,-7.73972 4.95392,-14.58284 8.61029,-21.62492 2.09607,5.23224 5.808,9.85506 9.36632,14.16318 7.71935,9.34717 16.8665,17.99848 26.40119,25.44744 -10.60163,1.29963 -21.31367,2.08569 -31.95368,3.01223 -11.27269,0.98184 -22.51081,2.41846 -33.79682,3.23691 -3.19113,0.2312 -7.8466,0.16581 -10.51327,2.14035 -2.95179,2.18586 -2.07504,6.3669 1.17689,7.67784 2.60002,1.04814 5.63777,0.19559 8.27238,-0.29726 3.2369,-0.60527 6.56434,-1.02434 9.8236,-1.49918 15.39893,-2.24371 30.76418,-4.8681 46.19702,-6.85896 3.69926,-0.47719 7.50147,-0.99114 11.16212,-1.70443 1.88187,-0.36662 4.45427,-1.16198 6.30073,-0.36765 0.8398,0.36119 2.4718,1.20481 2.81698,2.09733 0.35207,0.91036 -0.34547,2.02653 -0.40108,2.95658 -0.11094,1.86451 0.63432,3.54184 1.95603,4.8281 4.31984,4.20375 9.71258,7.66159 14.46553,11.37113 0.86895,0.6783 1.71795,1.39973 2.751,1.81563 0.8381,0.33775 1.86668,0.3932 2.33932,1.27516 0.77349,1.44425 0.52773,3.55449 0.64273,5.13935 0.2167,2.99136 0.54177,6.01108 0.84092,8.99513 1.21972,12.16433 2.06701,24.40676 3.54598,36.53971 0.89958,7.37742 0.82583,15.03483 2.27004,22.3336 0.55113,2.78687 3.1818,5.35066 6.19322,4.27077 2.01439,-0.72256 3.08065,-3.00576 3.17092,-5.00981 0.0929,-2.0629 -0.44596,-4.09848 -0.79632,-6.11274 -0.49111,-2.82422 -0.78775,-5.67748 -1.27936,-8.50373 -1.32346,-7.60763 -2.1351,-15.30951 -3.34804,-22.93588 -1.25317,-7.87749 -2.60062,-15.7736 -3.59349,-23.68917 -0.44845,-3.57594 -0.97927,-7.21455 -1.59697,-10.76593 -0.1994,-1.148 -1.06862,-3.32532 -0.24992,-4.3735 0.71598,-0.91666 2.39633,0.34494 3.11663,0.70328 3.03451,1.50923 6.29253,2.86202 9.55957,3.7741 2.26424,0.63203 4.56607,1.1871 6.92723,1.27279 1.34241,0.0492 2.82628,-0.36566 4.12874,0.0517 1.29835,0.41625 2.41427,1.66976 3.49124,2.46925 1.83688,1.36382 3.77551,2.64919 5.64486,3.98214 5.78983,4.12745 11.99313,7.79072 17.63229,12.12068 -6.48699,8.16479 -16.24414,14.46244 -25.60867,18.77079 -3.24398,1.49238 -6.82191,2.26737 -9.99825,3.86426 2.67776,0.43887 6.10345,-1.4527 8.53279,-2.5074 7.14531,-3.10206 13.7343,-7.11185 19.71078,-12.12079 1.84266,-1.54459 3.69505,-3.25004 5.3535,-4.99064 0.6776,-0.71107 1.32532,-1.90282 2.39565,-2.04656 1.50217,-0.20126 3.87731,1.94614 4.99528,2.81643 3.63498,2.83071 7.64915,5.14072 11.28003,7.97669 -8.27247,9.02615 -17.4255,16.70243 -28.22425,22.56465 -3.23122,1.75414 -6.64835,3.29261 -10.06483,4.64607 -1.87254,0.74164 -3.87649,1.24639 -5.60249,2.29467 l 0.0567,0.46122 0.51787,0.40449 c 13.19346,-4.41829 25.40511,-11.49748 35.63844,-20.94277 2.11513,-1.95217 4.03821,-4.05933 6.01568,-6.1411 0.66862,-0.7039 1.67909,-2.05049 2.7047,-2.16413 1.14177,-0.1263 2.21993,1.00849 3.04454,1.65174 l -6.2698,8.02717 c -0.75946,0.97232 -2.17017,2.23561 -2.31697,3.51511 -0.0794,0.69211 0.23722,1.28052 0.68199,1.78343 1.1478,1.29757 4.15394,4.07668 6.02033,3.40321 1.30674,-0.47148 2.25056,-2.25204 3.06725,-3.29764 l 6.47205,-8.28613 c 4.15834,3.24796 8.67863,5.95565 12.83368,9.1902 1.1256,0.87706 3.72705,3.2242 5.22417,2.99524 2.12228,-0.32477 3.4162,-3.85225 4.54975,-5.36703 3.51745,2.74739 6.94336,5.7593 10.62548,8.28093 1.19975,0.82164 3.403,1.2088 3.8031,-0.71795 0.5157,-2.48308 -3.95107,-4.79916 -5.58473,-6.07517 l -13.98282,-10.92159 c -2.06402,-1.61214 -4.38484,-4.1499 -6.81635,-5.14314 -2.39214,-0.97747 -3.84805,1.5788 -2.23929,3.39486 2.97802,3.36167 7.54549,5.98866 11.08729,8.75506 l -2.02251,2.58942 c -4.76297,-3.72022 -9.0743,-7.9215 -13.83727,-11.64173 l 6.47206,-8.28611 c 0.80577,-1.03162 2.32685,-2.39297 2.44654,-3.76161 0.18024,-2.06052 -4.68512,-5.99497 -6.64533,-5.25961 -1.20587,0.4523 -2.0899,2.12696 -2.84936,3.09929 l -6.26979,8.02717 c -0.8238,-0.64428 -2.18591,-1.41552 -2.3399,-2.55389 -0.13011,-0.96339 0.7999,-2.08683 1.2725,-2.86589 1.43405,-2.36446 2.96021,-4.6253 4.31519,-7.05237 4.89749,-8.77094 8.43227,-18.2723 10.42479,-28.12903 0.80719,-3.99267 0.99481,-8.06322 1.62207,-12.07429 l -0.51786,-0.4045 -0.46121,0.0567 c -0.72936,2.26075 -0.75004,4.75275 -1.04647,7.10399 -0.41123,3.26636 -1.07012,6.58983 -1.89337,9.77784 -3.07843,11.91903 -8.2943,22.62257 -15.05761,32.84874 -3.71814,-2.90413 -7.023,-6.29094 -10.72976,-9.21496 -1.05366,-0.83147 -3.52438,-2.54102 -3.6836,-3.96199 -0.11984,-1.07209 0.87875,-1.99188 1.40547,-2.81996 1.24705,-1.96062 2.35515,-4.02519 3.3982,-6.10094 3.28081,-6.52869 5.73578,-13.67615 6.86623,-20.90259 0.38124,-2.43634 1.46428,-5.64365 0.45611,-7.98203 -0.82282,3.65613 -0.93807,7.47176 -1.73236,11.15434 -1.98616,9.20753 -5.75204,18.92738 -11.42788,26.51171 -5.97507,-4.74701 -11.6554,-10.07263 -17.33487,-15.17035 -2.43001,-2.18068 -5.68313,-4.10874 -7.74563,-6.63024 -1.42261,-1.73945 -1.70548,-4.63489 -2.71271,-6.6686 -2.32395,-4.6923 -5.56644,-9.96738 -9.43909,-13.53627 1.65411,-1.98163 3.70759,-1.73312 6.10239,-1.94134 3.30054,-0.28748 6.63876,-0.56932 9.92618,-0.96544 15.44487,-1.86054 31.00328,-2.98201 46.4835,-4.53393 4.60639,-0.46159 9.31126,-0.5694 13.88944,-1.25855 2.36423,-0.35592 4.87903,-1.42931 5.6365,-3.93368 0.77357,-2.55808 -1.22192,-4.95721 -3.64284,-5.53274 -1.56998,-0.37326 -3.19713,0.0147 -4.76374,0.21733 -3.15186,0.40781 -6.27196,0.99966 -9.42167,1.39454 -14.67908,1.84038 -29.21958,4.75876 -43.90193,6.56702 -3.59605,0.44272 -7.20727,1.01161 -10.78663,1.58079 -1.69918,0.27043 -3.86443,1.12739 -5.58223,0.69413 -1.34704,-0.34005 -2.54689,-2.86483 -3.71388,-3.78551 -3.43929,-2.71347 -6.90498,-5.3937 -10.35744,-8.09032 -1.82709,-1.42709 -3.70815,-3.3466 -5.88723,-4.20561 -2.37089,-0.93422 -4.83369,-0.15748 -6.61399,1.52881 -1.05668,-0.90073 -2.61458,-2.09063 -3.21501,-3.35666 -0.90271,-1.9033 -0.69434,-4.43007 -0.84332,-6.48384 -0.2718,-3.74979 -0.65889,-7.56172 -1.11429,-11.29318 -1.84703,-15.13121 -2.90007,-30.39186 -4.42082,-45.56132 -0.32862,-3.27722 -0.72787,-6.6071 -0.92452,-9.89422 -0.15352,-2.57054 -0.072,-5.56952 -1.52076,-7.81302 -1.9703,-3.05109 -6.46773,-3.16187 -7.9293,0.43183 -1.25442,3.08512 -0.081,7.55087 0.47023,10.71927 1.93916,11.14825 3.26694,22.39974 5.04433,33.57466 1.67771,10.54674 3.50952,21.13211 4.81595,31.73196 m 11.76757,-47.0922 c 2.47953,0.7706 5.23759,0.78691 7.80228,1.22001 4.8965,0.82649 9.80586,2.12704 14.43272,3.94032 15.99583,6.26852 29.59897,17.77867 38.30678,32.62321 1.98145,3.37791 3.64442,6.92815 5.08893,10.5654 0.85179,2.14409 1.40246,4.42448 2.43859,6.48577 0.31494,-1.92072 -0.71848,-3.90276 -1.40039,-5.67988 -1.71092,-4.45819 -3.85161,-8.68799 -6.25593,-12.80769 -9.30763,-15.948 -25.68824,-28.43391 -43.36471,-33.6204 -3.87984,-1.13848 -7.73836,-2.0235 -11.74528,-2.57709 -1.70374,-0.23509 -3.66422,-0.76493 -5.30299,-0.14965 m -35.49794,-16.46973 c -8.31131,2.1438 -16.39381,6.51672 -23.50902,11.23867 -25.08443,16.64667 -41.332,44.2384 -43.69521,74.26858 l 0.97907,0.3478 c 0.80353,-2.59055 0.78963,-5.54855 1.1931,-8.24021 0.60884,-4.06007 1.51779,-8.14672 2.67653,-12.08453 5.03353,-17.10594 14.84967,-32.43038 27.9831,-44.43252 7.45886,-6.81659 15.98753,-11.95503 25.07695,-16.26772 2.17133,-1.03025 4.41,-1.90489 6.67507,-2.70765 1.24984,-0.44296 2.50713,-0.67124 2.62041,-2.12242 m -43.31585,114.1717 c -0.20902,1.76539 0.6913,3.62638 1.30549,5.26763 1.46933,3.9268 3.21436,7.7104 5.32305,11.33319 9.20144,15.80586 23.14946,27.35274 40.06739,34.10553 4.84097,1.93255 10.09342,3.17923 15.23659,3.97867 1.9306,0.30014 4.30211,0.9384 6.1368,0.14969 -2.05412,-0.56796 -4.25581,-0.5883 -6.36263,-0.9281 -3.9466,-0.63613 -7.81875,-1.49677 -11.62999,-2.72468 -15.7344,-5.06917 -29.70589,-15.29107 -39.13795,-28.89023 -2.98334,-4.30178 -5.5502,-8.95159 -7.58359,-13.77674 -1.16487,-2.76386 -1.80346,-5.95757 -3.35516,-8.51496 m -18.63313,8.37647 c -0.88575,2.31952 1.00033,5.51955 1.93282,7.66709 2.71085,6.24397 5.79506,12.36433 9.77313,17.91254 12.96478,18.08365 31.11623,32.0265 52.6505,38.27879 4.55001,1.32132 9.20166,2.34973 13.89091,3.03268 2.22427,0.32397 4.58005,0.85906 6.79869,0.36983 -1.2312,-1.33064 -3.08248,-1.12437 -4.79743,-1.33071 -3.32934,-0.39996 -6.63782,-0.98838 -9.90848,-1.72609 -9.91572,-2.23619 -19.87741,-6.13386 -28.48477,-11.57066 -13.58437,-8.58082 -25.00423,-19.95742 -33.12916,-33.91435 -2.15168,-3.69639 -3.9953,-7.52616 -5.62971,-11.47433 -0.98694,-2.38476 -1.63313,-5.11078 -3.0965,-7.24479"
       id="path10760"
       sodipodi:nodetypes="cccscccccsccccccccccsccccccccccccsccsscsccccccccccscccccscccccccscccscccsccccssccsscssccccsssscscccssssccccsccccccccscccccccsccccscscscccssccsccccscccccccsccccccccccccscsscccccsccccccccccsccccccc" />
  </g>
</svg>
