<?xml version="1.0" encoding="UTF-8" standalone="no"?>
<svg
   width="560"
   height="350"
   version="1.1"
   id="svg8154"
   sodipodi:docname="landing zone copy.svg"
   inkscape:version="1.1.1 (c3084ef, 2021-09-22)"
   inkscape:export-filename="/Users/cmj/Temporary Files/landing zone.png"
   inkscape:export-xdpi="96"
   inkscape:export-ydpi="96"
   xmlns:inkscape="http://www.inkscape.org/namespaces/inkscape"
   xmlns:sodipodi="http://sodipodi.sourceforge.net/DTD/sodipodi-0.dtd"
   xmlns="http://www.w3.org/2000/svg"
   xmlns:svg="http://www.w3.org/2000/svg">
  <defs
     id="defs8158" />
  <sodipodi:namedview
     id="namedview8156"
     pagecolor="#ffffff"
     bordercolor="#666666"
     borderopacity="1.0"
     inkscape:pageshadow="2"
     inkscape:pageopacity="0.0"
     inkscape:pagecheckerboard="0"
     showgrid="false"
     inkscape:zoom="0.92710337"
     inkscape:cx="407.72153"
     inkscape:cy="166.10877"
     inkscape:window-width="2713"
     inkscape:window-height="1566"
     inkscape:window-x="106"
     inkscape:window-y="25"
     inkscape:window-maximized="0"
     inkscape:current-layer="layer7"
     width="1024px" />
  <g
     inkscape:groupmode="layer"
     id="layer8"
     inkscape:label="Helipad"
     style="display:inline">
    <g
       inkscape:groupmode="layer"
       id="layer2"
       inkscape:label="Red circle"
       style="display:inline">
      <path
         style="fill:#c74634;fill-opacity:1;stroke:none;stroke-width:0.696298"
         d="m 379.75648,11.826502 c -11.36658,1.51951 -22.5993,2.034233 -33.81269,4.956129 -28.45717,7.415013 -56.44303,23.38121 -76.53433,45.332771 -19.08781,20.85523 -33.45006,46.075698 -40.44487,73.772828 -15.88345,62.89309 6.90386,132.45666 57.63449,172.216 17.51842,13.72947 37.35612,23.62557 58.65466,29.6089 20.00814,5.62079 41.64066,6.42878 62.10493,3.83619 54.56884,-6.91287 103.73249,-42.8852 126.75686,-93.94795 10.20798,-22.63842 15.37442,-47.48089 15.37442,-72.36763 0,-75.891168 -56.10836,-145.037381 -129.02024,-159.9116 -12.87573,-2.626664 -27.58356,-5.250939 -40.71323,-3.495638 z"
         id="path4572" />
    </g>
    <g
       inkscape:groupmode="layer"
       id="layer3"
       inkscape:label="Black pad">
      <path
         style="display:inline;fill:#000000;stroke:none;stroke-width:0.696298"
         d="m 379.75648,37.52446 c -67.81238,0 -130.42036,63.77415 -130.42036,132.79109 -2.51353,0.007 -5.2507,-0.12857 -7.57998,1.00753 -4.4561,2.17243 -5.29031,8.0855 -1.29861,11.24298 2.48164,1.96306 5.91107,1.79303 8.87859,1.80146 0,69.03732 62.64248,132.79109 130.42036,132.79109 10e-4,2.54411 -0.24773,5.37277 0.90949,7.71805 2.40001,4.86338 8.68434,5.30251 11.60948,0.67449 1.55608,-2.4619 1.28005,-5.5976 1.28212,-8.39254 67.78685,0 130.42036,-63.74113 130.42036,-132.79109 2.74504,-0.002 5.82476,0.27893 8.24271,-1.30543 4.54539,-2.97831 4.1141,-9.37688 -0.66245,-11.82051 -2.30341,-1.17826 -5.08157,-0.92462 -7.58026,-0.92603 0,-69.04715 -62.60108,-132.79109 -130.42036,-132.79109 -0.008,-3.021454 0.15872,-6.513298 -1.7693,-9.039982 -3.1011,-4.064251 -8.9086,-3.21488 -11.04225,1.32222 -1.11582,2.371691 -0.98264,5.158477 -0.98954,7.717762 z"
         id="path4688" />
    </g>
    <g
       inkscape:groupmode="layer"
       id="layer4"
       inkscape:label="Grey circle">
      <path
         style="display:inline;fill:#e6e6e6;stroke:none;stroke-width:0.696298"
         d="m 263.13721,170.31555 c 7.1233,0.17565 13.07502,8.85766 4.82079,13.2236 -1.51501,0.80167 -3.16348,0.78762 -4.82079,0.82837 0.007,61.30452 56.3968,118.73913 116.61927,118.73913 0.17251,-7.25293 8.69952,-13.31284 12.98752,-4.90836 0.78735,1.54221 0.77355,3.22071 0.81357,4.90836 60.23558,-0.007 116.61237,-57.40018 116.61927,-118.73913 -7.12344,-0.17565 -13.07516,-8.85766 -4.82073,-13.22361 1.51467,-0.80166 3.16322,-0.78761 4.82073,-0.82836 0,-61.32981 -56.38024,-118.732448 -116.61927,-118.739118 -0.17251,7.25278 -8.69952,13.31269 -12.98752,4.90842 -0.78735,-1.54256 -0.77355,-3.22099 -0.81357,-4.90842 -60.24593,0.007 -116.61264,57.407198 -116.61927,118.739118 z"
         id="path4962" />
    </g>
    <g
       inkscape:groupmode="layer"
       id="layer5"
       inkscape:label="Dots">
      <path
         style="display:inline;fill:#000000;stroke:none;stroke-width:0.696298"
         d="m 385.27761,75.192872 c -8.34415,2.01926 -5.46524,15.18104 2.75884,13.19058 8.34414,-2.01927 5.46454,-15.18105 -2.75884,-13.19058 z"
         id="path5330" />
      <path
         style="display:inline;fill:#000000;stroke:none;stroke-width:0.696298"
         d="m 291.43015,170.74624 c -8.34414,2.01927 -5.46455,15.18105 2.75884,13.19059 8.34414,-2.01927 5.46454,-15.18105 -2.75884,-13.19059 z"
         id="path6256" />
      <path
         style="display:inline;fill:#000000;stroke:none;stroke-width:0.696298"
         d="m 479.12506,170.74624 c -8.34414,2.01927 -5.46454,15.18105 2.75884,13.19059 8.34414,-2.01927 5.46454,-15.18105 -2.75884,-13.19059 z"
         id="path6264" />
      <path
         style="display:inline;fill:#000000;stroke:none;stroke-width:0.696298"
         d="m 385.27761,266.29962 c -8.34415,2.01927 -5.46455,15.18105 2.75884,13.19059 8.34414,-2.01927 5.46454,-15.18105 -2.75884,-13.19059 z"
         id="path7220" />
    </g>
    <g
       inkscape:groupmode="layer"
       id="layer6"
       inkscape:label="O">
      <path
         style="fill:#c74634;stroke-width:4.32745"
         inkscape:connector-curvature="0"
         d="m 365.42238,224.55903 c -21.18695,0 -38.1365,-21.38996 -38.1365,-48.12752 0,-26.73762 16.94955,-48.12772 38.1365,-48.12772 h 44.68519 c 21.18695,0 38.1365,21.3901 38.1365,48.12772 0,26.73756 -16.94955,48.12752 -38.1365,48.12752 h -44.68519 m 43.52954,-17.01477 c 13.86781,0 24.6539,-14.09799 24.6539,-31.11275 0,-17.50095 -11.1713,-31.11276 -24.6539,-31.11276 h -42.37389 c -13.86782,0 -24.6539,14.09795 -24.6539,31.11276 0,17.01476 11.1713,31.11275 24.6539,31.11275 h 42.37389"
         id="path112" />
    </g>
  </g>
  <g
     inkscape:groupmode="layer"
     id="layer7"
     inkscape:label="chopper"
     style="display:inline">
    <path
       style="fill:#343434;stroke:none;stroke-width:0.328567"
       d="m 219.31926,312.09494 c -1.97793,0.0374 -3.34448,1.95889 -4.7602,3.20422 -3.13647,2.7584 -6.47104,5.37517 -9.9567,7.68113 -10.19859,6.74665 -21.56785,11.52758 -33.47659,14.23828 -12.90411,2.93729 -26.86921,2.49697 -39.77139,-0.16202 -4.4344,-0.9138 -8.77461,-2.17961 -13.03269,-3.71359 -1.90892,-0.68783 -4.30634,-2.20814 -6.32322,-1.71312 l 0.11768,0.64651 c 7.40013,2.51799 14.48546,5.27695 22.24484,6.62011 21.14659,3.65971 42.96466,0.0293 62.02261,-9.69554 5.85526,-2.98778 11.30556,-6.66491 16.40137,-10.80493 2.24867,-1.82697 5.10259,-3.74511 6.53427,-6.30105 m -42.0356,-54.80012 c 11.90663,-2.16814 24.01975,-5.57978 35.2002,-10.27325 5.15221,-2.16248 10.58661,-4.53229 14.87313,-8.19232 0.87354,8.65203 -0.79078,18.06691 -3.31085,26.31802 -1.05346,3.4486 -3.05676,6.8383 -3.70558,10.35952 2.01375,-1.78559 2.77278,-5.52154 3.64518,-8.01077 2.20513,-6.29153 3.3265,-12.78889 3.91163,-19.41408 0.24647,-2.7924 -0.57918,-6.38352 0.27292,-9.03569 0.46466,-1.44516 1.93743,-2.45063 2.92391,-3.53523 1.83469,-2.01714 3.44539,-5.07759 2.8602,-7.90162 -0.56901,-2.74412 -2.70016,-4.91006 -5.09345,-6.19668 -1.90577,-1.02469 -4.12156,-1.45361 -4.95687,-3.66303 -3.04605,-8.05419 -6.71468,-15.77663 -12.20568,-22.49142 -1.59379,-1.94913 -3.33007,-4.9911 -5.71628,-5.97278 1.98473,3.37949 5.19631,6.07379 7.42316,9.33571 4.4973,6.58742 7.59462,13.39859 10.42129,20.81274 -5.30123,-1.91483 -11.22216,-2.21771 -16.80589,-2.42599 -12.11417,-0.45261 -24.65836,0.62376 -36.56249,2.78925 6.08085,-8.78105 12.61864,-17.30296 19.00363,-25.86453 6.76449,-9.07078 13.16637,-18.41824 20.06173,-27.39031 1.94983,-2.53671 5.0951,-5.96965 5.39428,-9.27425 0.33103,-3.65807 -3.37444,-5.78414 -6.51611,-4.22783 -2.51198,1.24443 -3.89583,4.07985 -5.28013,6.37502 -1.70094,2.81968 -3.60115,5.58316 -5.41435,8.33278 -8.56664,12.99131 -16.82661,26.21067 -25.60461,39.05911 -2.10411,3.07976 -4.24924,6.26085 -6.15135,9.46884 -0.97792,1.64911 -2.09493,4.09902 -3.9162,4.94952 -0.8283,0.38684 -2.54373,1.04441 -3.4398,0.70855 -0.91395,-0.34259 -1.28349,-1.60586 -1.94101,-2.26597 -1.31851,-1.32297 -3.06673,-1.88206 -4.90632,-1.75061 -6.0123,0.4298 -12.18121,2.15689 -18.11253,3.23883 -1.08448,0.19776 -2.18788,0.35187 -3.18555,0.84666 -0.80963,0.4012 -1.53518,1.13239 -2.50813,0.89873 -1.59295,-0.38297 -3.00528,-1.97008 -4.26525,-2.93832 -2.37789,-1.82779 -4.84905,-3.59353 -7.27632,-5.35487 -9.89483,-7.1799 -19.600272,-14.68986 -29.644112,-21.6553 -6.10733,-4.23509 -11.77636,-9.38324 -18.18719,-13.15934 -2.44763,-1.44206 -6.11182,-1.18285 -7.30836,1.78416 -0.80026,1.98482 0.19551,4.29962 1.63197,5.69995 1.47865,1.44145 3.35712,2.39296 5.09427,3.47105 2.43559,1.51171 4.76354,3.18795 7.20099,4.70063 6.56116,4.0717 12.85229,8.58827 19.35395,12.75495 6.715922,4.30367 13.508462,8.54931 20.079702,13.07269 2.96857,2.04355 6.0387,4.06727 9.10151,5.96809 0.98987,0.61467 3.1939,1.41376 3.43208,2.72227 0.20826,1.14435 -1.85142,1.56002 -2.59809,1.85956 -3.14531,1.26216 -6.32243,2.79532 -9.17651,4.62827 -1.97794,1.27043 -3.92342,2.6201 -5.55787,4.32627 -0.9296,0.96972 -1.60674,2.35369 -2.78469,3.04871 -1.17455,0.69238 -2.85266,0.69224 -4.16598,0.96466 -2.24016,0.4646 -4.489412,1.05728 -6.728112,1.5667 -6.93303,1.57828 -13.79447,3.77397 -20.77852,5.10501 -1.78235,-10.27463 0.005,-21.74935 3.01591,-31.60776 1.04321,-3.41501 2.84424,-6.60226 3.76441,-10.03626 -2.10874,1.70768 -2.97471,5.52389 -3.80293,8.03948 -2.43605,7.39891 -3.82423,14.98614 -4.05892,22.78054 -0.0722,2.40334 -0.0307,4.92091 0.16598,7.31703 0.0803,0.97894 0.53944,2.25526 -0.0652,3.15013 -0.84883,1.25558 -4.03212,1.60092 -5.42557,1.85692 -4.5315,0.83162 -8.92636,2.29272 -13.45906,3.11778 -1.238,-12.18082 -0.88233,-24.12137 1.92255,-36.08427 0.83925,-3.5796 1.96323,-7.15457 3.22491,-10.60599 0.69166,-1.89157 1.6476,-3.72371 2.0128,-5.70982 l -0.38213,-0.26442 -0.64649,0.11766 c -5.4759,12.79076 -8.31177,26.61815 -8.06499,40.542 0.051,2.87788 0.34537,5.71542 0.58465,8.5767 0.0809,0.96747 0.4144,2.61767 -0.18289,3.45911 -0.66511,0.9366 -2.22961,0.98695 -3.25839,1.17487 l -1.82405,-10.02092 c -0.22095,-1.21382 -0.22599,-3.10749 -1.08382,-4.06813 -0.46401,-0.51962 -1.11398,-0.67455 -1.78535,-0.67692 -1.73237,-0.006 -5.80708,0.39044 -6.54553,2.23208 -0.51707,1.28938 0.1848,3.17845 0.42239,4.48376 l 1.8829,10.34417 c -5.19117,0.94492 -10.21964,2.51946 -15.3986,3.47084 -1.40358,0.2572 -4.88656,0.63866 -5.71134,1.9089 -1.16905,1.8008 0.60445,5.11321 0.98164,6.96718 -4.39108,0.79928 -8.91884,1.35426 -13.2508705,2.42666 -1.41153,0.3494 -3.16607,1.73716 -1.99339,3.31745 1.51121,2.03662 6.2116305,0.24158 8.2510705,-0.12964 l 17.45579,-3.17735 c 2.57666,-0.46908 6.01532,-0.51417 8.37425,-1.66925 2.32098,-1.13617 1.38046,-3.92357 -1.04568,-3.93015 -4.49102,-0.0121 -9.4906,1.65134 -13.91208,2.45617 l -0.58843,-3.23256 c 5.94597,-1.0823 11.95078,-1.50739 17.89676,-2.5897 l 1.88286,10.34417 c 0.23443,1.28785 0.2393,3.32916 1.18171,4.32885 1.41879,1.50508 7.59283,0.48879 8.34747,-1.46408 0.4643,-1.20129 -0.19824,-2.97527 -0.41919,-4.18911 l -1.82405,-10.02091 c 1.02904,-0.18661 2.51091,-0.69081 3.46339,-0.0487 0.80594,0.5436 1.02629,1.9853 1.29372,2.85637 0.81181,2.64351 1.48499,5.28688 2.39615,7.91298 3.2922,9.49085 8.03619,18.44993 14.07132,26.49372 2.44461,3.25834 5.35945,6.10585 7.93748,9.24208 l 0.64648,-0.11767 0.26442,-0.38213 c -1.20271,-2.04852 -3.05019,-3.72122 -4.60879,-5.50642 -2.16561,-2.4796 -4.20913,-5.18211 -6.04218,-7.91727 -6.85287,-10.22634 -11.37647,-21.24034 -14.51434,-33.09237 4.64162,-0.8449 9.36882,-1.06012 14.01773,-1.8833 1.32168,-0.23381 4.24159,-0.94175 5.40859,-0.11549 0.88029,0.62358 0.90299,1.98101 1.17098,2.92513 0.63463,2.23525 1.43931,4.4359 2.2956,6.59541 2.69309,6.79225 6.39754,13.37937 11.04195,19.02993 1.56575,1.90514 3.24042,4.84712 5.65713,5.64958 -2.1829,-3.04618 -4.95553,-5.67008 -7.17716,-8.71257 -5.55458,-7.60723 -10.30802,-16.8842 -12.19642,-26.16705 7.5189,-1.30449 15.27384,-2.00404 22.858014,-2.85454 3.244648,-0.36416 6.848098,-1.51107 10.102818,-1.37406 2.24511,0.0946 4.59538,1.80919 6.78397,2.40972 5.04963,1.38554 11.14536,2.47277 16.38616,1.95466 0.37958,2.55323 -1.17181,3.92134 -2.60914,5.84813 -1.98058,2.65583 -3.99042,5.33607 -5.88115,8.05439 -8.8833,12.77075 -18.39404,25.13473 -27.531322,37.7266 -2.71913,3.74679 -5.76791,7.3318 -8.29832,11.20887 -1.30671,2.0022 -2.17782,4.59401 -0.81151,6.82535 1.39571,2.27908 4.51446,2.38468 6.55444,0.95968 1.32294,-0.9241 2.11547,-2.39721 3.00615,-3.70181 1.791844,-2.62486 3.425102,-5.3484 5.225162,-7.96306 8.38903,-12.1855 15.88091,-24.98453 24.29611,-37.15112 2.06119,-2.97976 4.03829,-6.05478 5.99394,-9.10619 0.92822,-1.4487 1.72843,-3.63557 3.1945,-4.63015 1.14987,-0.77974 3.83326,0.004 5.29695,-0.25549 4.3138,-0.76347 8.62032,-1.56876 12.9303,-2.35327 2.28088,-0.41514 4.96537,-0.54314 7.05618,-1.599 2.27453,-1.14908 3.33256,-3.50476 3.25745,-5.95576 1.37544,-0.18996 3.30016,-0.56189 4.64491,-0.16819 2.02168,0.59182 3.76992,2.42802 5.40264,3.68277 2.98089,2.29109 6.08487,4.53742 9.17419,6.67923 12.52756,8.68478 24.62365,18.04856 36.96275,27.00242 2.6658,1.93435 5.41791,3.85097 8.00331,5.89047 2.02163,1.59507 4.20687,3.65061 6.84578,4.06095 3.58884,0.55804 6.66288,-2.72667 4.95145,-6.20832 -1.46945,-2.9887 -5.58467,-5.08271 -8.31725,-6.77845 -9.61461,-5.96685 -18.89965,-12.4589 -28.42656,-18.5643 -8.99154,-5.76202 -18.11441,-11.43465 -26.89866,-17.50924 m 27.33877,40.10919 c -2.22462,1.33899 -4.07122,3.38771 -6.10047,5.01481 -3.87392,3.10668 -8.11039,5.90767 -12.54185,8.15669 -15.32005,7.7754 -32.96281,10.27777 -49.83951,6.90686 -3.84033,-0.76705 -7.59749,-1.8866 -11.27433,-3.22713 -2.16762,-0.79001 -4.23672,-1.89552 -6.46513,-2.49283 1.22479,1.51271 3.39222,2.0593 5.1728,2.73208 4.46707,1.68762 9.04943,2.9024 13.72493,3.84709 18.09966,3.65692 38.3184,-0.27051 53.94827,-10.02057 3.43073,-2.14001 6.65795,-4.43267 9.73642,-7.0566 1.30875,-1.11589 3.00834,-2.22744 3.63887,-3.8604 m 35.90889,-15.55337 c 3.92713,-7.63225 6.03752,-16.57629 7.24392,-25.03013 4.2534,-29.80352 -5.54387,-60.28795 -26.39674,-82.02624 l -0.91096,0.49971 c 1.40003,2.32305 3.61812,4.28008 5.35973,6.37164 2.62686,3.15506 5.07396,6.55192 7.24379,10.0363 9.42576,15.1362 14.34023,32.65884 14.5674,50.44892 0.12918,10.10365 -1.7063,19.89 -4.53139,29.54587 -0.67485,2.30666 -1.51071,4.56009 -2.4178,6.78543 -0.50052,1.22794 -1.16629,2.31864 -0.15799,3.36843 m -56.4462,-108.28319 c -1.17926,-1.33027 -3.16776,-1.89575 -4.80185,-2.52873 -3.90957,-1.51458 -7.89558,-2.72804 -12.00339,-3.56299 -17.92288,-3.64168 -35.82246,-0.90619 -52.11745,7.23568 -4.66291,2.32956 -9.08736,5.42258 -13.10514,8.73145 -1.5082,1.24203 -3.562152,2.58841 -4.193472,4.48302 1.790344,-1.15612 3.269912,-2.78669 4.924942,-4.1339 3.09997,-2.52399 6.31807,-4.84304 9.76994,-6.87235 14.25056,-8.37789 31.17634,-12.01217 47.60479,-10.01039 5.19657,0.63341 10.37603,1.8093 15.3316,3.50019 2.83866,0.96844 5.64826,2.61576 8.59003,3.15802 m 6.13818,-19.4854 c -1.14294,-2.20419 -4.787,-2.92418 -7.01086,-3.65622 -6.46565,-2.12868 -13.08732,-3.89634 -19.87627,-4.61597 -22.12686,-2.34647 -44.61137,1.93428 -63.603048,13.8561 -4.012984,2.51883 -7.874824,5.30839 -11.503714,8.35579 -1.72132,1.44547 -3.68777,2.84873 -4.7981,4.83086 1.81253,-0.0344 2.88982,-1.55396 4.18454,-2.69734 2.51308,-2.22013 5.15301,-4.29934 7.87925,-6.25101 8.264972,-5.91711 17.801212,-10.76347 27.585982,-13.5748 15.44283,-4.43673 31.53374,-5.39761 47.35996,-2.18179 4.19135,0.85176 8.2774,2.02234 12.31273,3.42786 2.43722,0.84916 4.90265,2.17975 7.4695,2.50636"
       id="path10760"
       sodipodi:nodetypes="cccscccccsccccccccccsccccccccccccsccsscsccccccccccscccccscccccccscccscccsccccssccsscssccccsssscscccssssccccsccccccccscccccccsccccscscscccssccsccccscccccccsccccccccccccscsscccccsccccccccccsccccccc"
       inkscape:transform-center-x="18.023518"
       inkscape:transform-center-y="-3.395061" />
  </g>
</svg>
